<svg width="240" height="86" viewBox="0 0 240 86" fill="none" xmlns="http://www.w3.org/2000/svg">
<path fill-rule="evenodd" clip-rule="evenodd" d="M76.6862 0.969742C63.387 2.52983 52.4201 6.78262 43.9143 13.6785C40.4574 16.4814 39.3724 16.9787 38.3782 16.2147C35.4758 13.9831 33.0391 13.4673 28.048 14.0277C16.6429 15.3076 16.0292 20.0088 27.091 21.3586C30.1825 21.7364 28.6735 23.1366 22.9073 25.2445C12.3089 29.1169 4.57268 36.1449 1.40052 44.7834C0.28935 47.8077 0.0267827 51.3502 0.00226584 63.6534C-0.0388592 84.2879 0.378718 85.1917 9.85804 84.9998C18.2871 84.829 19.4829 83.8108 11.9562 83.2134C8.10785 82.9071 4.45959 82.2162 3.84983 81.6768C3.23928 81.1383 2.7529 79.3241 2.76792 77.6453C2.7956 74.6564 2.81775 74.6346 3.84429 76.6036C5.20142 79.2105 8.01927 80.8362 11.2421 80.8741C14.7543 80.9145 14.4893 79.542 10.8466 78.8226C6.16074 77.8969 5.11442 76.3747 5.10335 70.4651C5.09861 67.6445 4.56872 63.2537 3.92654 60.7082C3.28436 58.1628 2.75843 54.3762 2.75764 52.2935C2.75527 47.3928 5.78745 40.4684 9.61998 36.6228C13.0057 33.2258 23.3969 27.7184 29.1923 26.25C33.8047 25.0812 40.4677 21.8382 45.1204 18.4967C46.9489 17.184 48.7939 16.1103 49.221 16.1103C49.8656 16.1103 56.062 31.3586 61.0176 45.141C63.8868 53.1207 62.5534 52.2935 72.5468 52.2935H81.4899L84.3323 47.0343C85.8958 44.1422 88.1577 39.8818 89.359 37.5678C90.5604 35.2538 92.146 32.4138 92.8831 31.2568C93.6202 30.0998 94.4411 28.5851 94.7069 27.8909C94.9734 27.1967 98.1669 21.3274 101.804 14.8481L108.417 3.06753L113.51 3.35868C120.079 3.73397 121.099 4.80348 115.587 5.53556C113.21 5.85195 110.705 6.56131 110.02 7.11332C107.827 8.87788 94.4807 33.9941 94.4807 36.3552C94.4807 39.3071 99.77 45.6762 104.159 48.0088C110.138 51.1862 119.482 52.6528 128.244 51.7903L135.947 51.0313L136.894 45.9825C137.414 43.2057 137.707 40.7906 137.544 40.6156C137.381 40.4406 135.653 40.7242 133.704 41.2467C124.341 43.7551 114.123 41.4041 111.045 36.0338C108.775 32.0713 109.014 26.5117 111.642 22.2009C115.365 16.091 123.678 13.6877 134.617 15.5583L138.769 16.2685V13.7702C138.769 12.3961 138.551 10.1089 138.284 8.68771C137.833 6.28867 137.423 6.01436 132.55 4.8464C117.566 1.25584 90.35 -0.633259 76.6862 0.969742ZM75.1045 3.19711C67.7486 4.8506 62.846 6.29541 62.846 6.81039C62.846 7.41709 64.8517 13.5943 70.3348 29.8709C71.8706 34.4316 73.1273 38.3125 73.1273 38.4959C73.1273 38.6802 73.4318 38.83 73.8043 38.83C74.1768 38.83 77.4399 32.8657 81.0557 25.5769C84.6716 18.2872 88.3222 11.006 89.1676 9.39454C92.8499 2.37752 93.035 2.63417 84.3774 2.7444C80.147 2.79826 75.9744 3.00189 75.1045 3.19711ZM23.3028 17.6788C23.3028 18.8123 30.2861 21.3712 33.6338 21.4646C37.426 21.5706 38.1821 20.7864 36.3568 18.6398C35.1673 17.2421 33.9225 16.9518 29.1117 16.9518C25.9166 16.9518 23.3028 17.2791 23.3028 17.6788ZM144.834 26.4183C144.593 27.9229 144.157 32.8303 143.864 37.3246L143.331 45.4961L145.647 47.9608C151.579 54.2718 171.123 52.822 173.601 45.8866C173.993 44.7918 174.555 39.3282 174.852 33.7442L175.391 23.5918L170.723 23.8485L166.054 24.1043L165.507 32.2733C164.756 43.464 163.647 45.5256 158.361 45.5491C156.086 45.5592 155.12 45.0847 154.124 43.4665C153.017 41.6708 152.934 40.1654 153.536 32.9044C153.923 28.2468 154.08 24.2667 153.886 24.0597C153.691 23.8527 151.674 23.6835 149.402 23.6835C145.359 23.6835 145.263 23.7416 144.834 26.4183ZM183.285 25.5769C180.636 27.5686 179.515 30.3429 180.298 32.9683C180.555 33.8308 183.061 36.4554 185.866 38.8014C188.671 41.1466 190.966 43.4244 190.966 43.8637C190.966 46.2341 184.882 46.8997 180.305 45.0308C179.201 44.5806 179.035 45.0106 179.247 47.7639L179.499 51.0313L184.041 51.7979C190.146 52.8279 196.665 51.3056 198.859 48.3369C201.947 44.1599 200.384 40.311 193.8 35.8832C191.208 34.1405 190.175 32.8934 190.175 31.5101C190.175 29.6883 190.479 29.5738 195.316 29.5738C200.686 29.5738 200.915 29.3769 199.958 25.5769C199.51 23.7988 199.066 23.6835 192.642 23.6835C186.824 23.6835 185.428 23.9663 183.285 25.5769ZM217.285 24.7009C216.835 25.2983 213.875 30.3312 210.706 35.8849C207.538 41.4386 204.292 46.8854 203.492 47.9894C202.692 49.0934 202.038 50.3237 202.038 50.7242C202.038 51.1247 204.311 51.4521 207.087 51.4521C211.175 51.4521 212.232 51.1719 212.642 49.9795C214.602 44.2912 215.202 43.8788 221.502 43.8788H227.435L229.009 47.6654L230.584 51.4521H235.292C237.881 51.4521 240 51.2417 240 50.985C240 50.7284 239.226 48.74 238.279 46.5673C237.332 44.3947 234.889 38.4513 232.848 33.3605L229.139 24.1043L223.621 23.8594C219.826 23.6911 217.847 23.9545 217.285 24.7009ZM221.107 32.981C218.765 37.068 218.967 37.9885 222.206 37.9885C224.557 37.9885 224.97 37.7041 224.946 36.0952C224.93 35.0543 224.434 33.2738 223.844 32.1395L222.771 30.0779L221.107 32.981ZM11.4398 40.2765C11.4398 41.383 15.2462 42.1959 20.4359 42.1967C25.0316 42.1984 45.2216 44.5234 47.0287 45.2588C47.9809 45.6468 47.9026 45.879 46.6333 46.4344C44.664 47.296 11.3805 47.4475 10.1356 46.601C9.6358 46.261 9.07666 45.0359 8.89397 43.8788L8.56181 41.7752L7.91646 44.1792C7.45934 45.8841 7.57876 46.7861 8.32692 47.2775C10.7881 48.8965 20.0895 49.7691 34.8747 49.7691C51.1183 49.7691 52.5648 49.4889 52.5648 46.3376C52.5648 43.9403 50.3369 42.7765 43.6122 41.6599C34.5631 40.1578 11.4398 39.1632 11.4398 40.2765ZM5.94958 56.8627C5.19984 57.8237 5.32954 58.2478 6.59176 58.9664C8.61242 60.1175 22.5119 60.1689 22.5119 59.0253C22.5119 58.5625 20.9784 58.1838 19.104 58.1838C17.2297 58.1838 15.0058 57.6276 14.1611 56.9485C12.1856 55.3582 7.16356 55.306 5.94958 56.8627ZM42.2464 56.9603C32.525 58.8343 25.5797 64.197 20.2287 73.9614C17.4575 79.0178 18.136 79.9644 21.1326 75.2236C24.1964 70.3767 28.1001 66.1786 31.822 63.7291C38.9635 59.0287 37.4181 59.117 128.092 58.2049C174.2 57.7404 218.262 57.3567 226.009 57.3516C235.195 57.3457 239.923 57.0495 239.605 56.5009C239.283 55.9464 206.523 55.6855 143.665 55.7351C66.628 55.7957 47.0635 56.0322 42.2464 56.9603ZM2.04982 68.2394C1.98497 72.2675 2.22223 74.218 2.71256 73.6963C3.18471 73.194 3.22346 70.8034 2.813 67.4274L2.15026 61.9704L2.04982 68.2394Z" fill="white"/>
<path d="M89.6046 74.1905H93.1874L98.7815 84.6679H94.895L93.9521 82.7232H88.8503L87.9075 84.6679H84L89.6046 74.1905ZM90.0656 80.3182H92.7369L91.4169 77.5083H91.3855L90.0656 80.3182Z" fill="white"/>
<path d="M107.479 74.1905H111.114V80.6039C111.114 81.4665 110.894 82.2152 110.454 82.8502C110.014 83.4852 109.372 83.98 108.527 84.3345C107.682 84.6838 106.655 84.8584 105.447 84.8584C104.239 84.8584 103.208 84.6838 102.356 84.3345C101.504 83.98 100.855 83.4852 100.408 82.8502C99.9679 82.2152 99.7479 81.4665 99.7479 80.6039V74.1905H103.394V80.4531C103.394 80.8817 103.47 81.2363 103.624 81.5167C103.785 81.7972 104.019 82.0089 104.326 82.1517C104.633 82.2893 105.007 82.3581 105.447 82.3581C105.88 82.3581 106.246 82.2893 106.547 82.1517C106.847 82.0089 107.078 81.7972 107.238 81.5167C107.399 81.2363 107.479 80.8817 107.479 80.4531V74.1905Z" fill="white"/>
<path d="M115.662 76.5955H112.541V74.1905H122.43V76.5955H119.308V84.6679H115.662V76.5955Z" fill="white"/>
<path d="M126.919 79.4213C126.919 79.9504 127.058 80.432 127.338 80.8659C127.624 81.2945 128.022 81.6358 128.532 81.8898C129.042 82.1438 129.635 82.2708 130.313 82.2708C130.99 82.2708 131.584 82.1438 132.094 81.8898C132.603 81.6358 132.998 81.2945 133.277 80.8659C133.564 80.432 133.707 79.9504 133.707 79.4213C133.707 78.8921 133.564 78.4132 133.277 77.9846C132.998 77.556 132.603 77.2147 132.094 76.9607C131.584 76.7014 130.99 76.5717 130.313 76.5717C129.635 76.5717 129.042 76.7014 128.532 76.9607C128.022 77.2147 127.624 77.556 127.338 77.9846C127.058 78.4132 126.919 78.8921 126.919 79.4213ZM123.116 79.4213C123.116 78.6593 123.297 77.9502 123.66 77.294C124.024 76.6326 124.53 76.0558 125.18 75.5637C125.829 75.0716 126.59 74.6879 127.463 74.4127C128.343 74.1376 129.293 74 130.313 74C131.346 74 132.3 74.1376 133.173 74.4127C134.046 74.6879 134.807 75.0716 135.456 75.5637C136.106 76.0558 136.609 76.6326 136.965 77.294C137.321 77.9502 137.499 78.6593 137.499 79.4213C137.499 80.1885 137.325 80.9029 136.975 81.5644C136.626 82.2205 136.13 82.7973 135.488 83.2947C134.852 83.7868 134.095 84.1705 133.215 84.4456C132.335 84.7208 131.367 84.8584 130.313 84.8584C129.223 84.8584 128.238 84.7208 127.358 84.4456C126.479 84.1705 125.721 83.7868 125.085 83.2947C124.457 82.7973 123.971 82.2205 123.629 81.5644C123.287 80.9029 123.116 80.1885 123.116 79.4213Z" fill="white"/>
<path d="M150.196 74C151.069 74 151.84 74.0741 152.511 74.2222C153.188 74.3651 153.733 74.5186 154.145 74.6826C154.557 74.8414 154.809 74.9472 154.899 75.0001L153.16 77.2226C153.049 77.1538 152.857 77.0612 152.584 76.9448C152.312 76.8284 151.998 76.7252 151.641 76.6352C151.292 76.54 150.943 76.4924 150.594 76.4924C150.147 76.4924 149.78 76.5479 149.494 76.659C149.214 76.7649 149.075 76.9316 149.075 77.1591C149.075 77.3178 149.152 77.4607 149.305 77.5877C149.459 77.7147 149.703 77.8417 150.039 77.9687C150.381 78.0957 150.831 78.2333 151.39 78.3815C151.914 78.519 152.399 78.6857 152.846 78.8815C153.3 79.0773 153.695 79.3101 154.03 79.58C154.365 79.8499 154.627 80.1594 154.816 80.5087C155.011 80.8579 155.109 81.2522 155.109 81.6914C155.109 82.2523 154.955 82.7338 154.648 83.136C154.348 83.5328 153.939 83.8583 153.422 84.1123C152.912 84.3663 152.336 84.5541 151.694 84.6758C151.051 84.7975 150.395 84.8584 149.724 84.8584C148.733 84.8584 147.846 84.7764 147.063 84.6123C146.288 84.443 145.66 84.2604 145.178 84.0647C144.703 83.8689 144.416 83.7339 144.319 83.6598L146.11 81.3501C146.187 81.3977 146.351 81.4744 146.602 81.5802C146.854 81.6861 147.154 81.7972 147.503 81.9136C147.86 82.03 148.233 82.1279 148.624 82.2073C149.015 82.2867 149.386 82.3264 149.735 82.3264C150.265 82.3264 150.66 82.2602 150.918 82.1279C151.177 81.9903 151.306 81.8025 151.306 81.5644C151.306 81.3897 151.226 81.2336 151.065 81.0961C150.905 80.9532 150.643 80.813 150.279 80.6754C149.916 80.5325 149.431 80.3737 148.823 80.1991C148.223 80.0245 147.657 79.8075 147.126 79.5483C146.602 79.2837 146.173 78.945 145.838 78.5323C145.509 78.1195 145.345 77.6062 145.345 76.9924C145.345 76.3733 145.572 75.8415 146.026 75.397C146.487 74.9472 147.088 74.6032 147.828 74.3651C148.568 74.1217 149.358 74 150.196 74Z" fill="white"/>
<path d="M156.853 74.1905H165.936V76.5955H160.499V78.2545H165.915V80.5801H160.499V82.2629H165.936V84.6679H156.853V74.1905Z" fill="white"/>
<path d="M168.044 74.1905H173.994C174.818 74.1905 175.548 74.3228 176.183 74.5874C176.819 74.8467 177.318 75.2197 177.681 75.7065C178.051 76.1934 178.237 76.7728 178.237 77.4448C178.237 78.1116 178.086 78.654 177.786 79.072C177.486 79.49 177.126 79.8023 176.707 80.0086C176.288 80.215 175.904 80.3446 175.555 80.3976L178.886 84.6679H174.79L171.878 80.6119H171.7V84.6679H168.044V74.1905ZM171.7 78.7228H172.684C173.138 78.7228 173.55 78.6407 173.92 78.4767C174.298 78.3127 174.486 77.9978 174.486 77.5322C174.486 77.0718 174.301 76.7596 173.931 76.5955C173.568 76.4315 173.163 76.3495 172.716 76.3495H171.7V78.7228Z" fill="white"/>
<path d="M189.047 84.6679H184.961L180.09 74.1905H184.207L187.004 81.1119L189.812 74.1905H193.918L189.047 84.6679Z" fill="white"/>
<path d="M195.445 74.1905H199.091V84.6679H195.445V74.1905Z" fill="white"/>
<path d="M208.858 82.12C209.41 82.12 209.93 82.0565 210.419 81.9295C210.908 81.8025 211.281 81.6755 211.54 81.5485L213.09 83.89C212.762 84.1017 212.196 84.316 211.393 84.533C210.597 84.7499 209.654 84.8584 208.564 84.8584C207.545 84.8584 206.585 84.7235 205.684 84.4536C204.783 84.1837 203.983 83.8054 203.285 83.3185C202.593 82.8317 202.052 82.2602 201.661 81.604C201.27 80.9426 201.074 80.2229 201.074 79.4451C201.074 78.6672 201.27 77.9475 201.661 77.2861C202.052 76.6193 202.593 76.0426 203.285 75.5557C203.976 75.0636 204.772 74.6826 205.673 74.4127C206.581 74.1376 207.545 74 208.564 74C209.654 74 210.597 74.1085 211.393 74.3254C212.196 74.5424 212.762 74.7567 213.09 74.9684L211.54 77.3099C211.281 77.1829 210.908 77.0559 210.419 76.9289C209.93 76.8019 209.41 76.7384 208.858 76.7384C208.173 76.7384 207.587 76.8151 207.098 76.9686C206.616 77.1221 206.221 77.3284 205.914 77.5877C205.607 77.847 205.38 78.1354 205.233 78.4529C205.093 78.7704 205.024 79.0932 205.024 79.4213C205.024 79.7546 205.093 80.0827 205.233 80.4055C205.38 80.723 205.607 81.0114 205.914 81.2707C206.221 81.53 206.616 81.7363 207.098 81.8898C207.587 82.0433 208.173 82.12 208.858 82.12Z" fill="white"/>
<path d="M214.901 74.1905H223.983V76.5955H218.546V78.2545H223.962V80.5801H218.546V82.2629H223.983V84.6679H214.901V74.1905Z" fill="white"/>
</svg>
